<svg xmlns="http://www.w3.org/2000/svg" viewBox="-10 -9 21 19" class="drawing" role="img" aria-label="massing conceptual drawing" data-revision="C05" data-option="02"><polygon points="-0.434,-0.36400000000000005 7.998,3.444 -2.6040000000000005,8.232000000000001 -11.036,4.424" fill="#dce7d0" stroke="#6f816b" stroke-width="0.03"></polygon><polygon points="0,0 -7.936,3.5840000000000005 -7.936,0.9440000000000004 0,-2.64" fill="#d4d8d0" stroke="#6f816b" stroke-width="0.03"></polygon><polygon points="-7.936,3.5840000000000005 -1.9840000000000007,6.272 -1.9840000000000007,3.632 -7.936,0.9440000000000004" fill="#e4e4de" stroke="#6f816b" stroke-width="0.03"></polygon><polygon points="5.952,2.688 -1.9840000000000007,6.272 -1.9840000000000007,3.632 5.952,0.04800000000000004" fill="#b9c5bf" stroke="#6f816b" stroke-width="0.03"></polygon><polygon points="0,-2.64 5.952,0.04800000000000004 -1.9840000000000007,3.632 -7.936,0.9440000000000004" fill="#f1ede5" stroke="#6f816b" stroke-width="0.03"></polygon><polygon points="0,-2.64 -8.432,1.1680000000000001 -8.432,-1.472 0,-5.28" fill="#d4d8d0" stroke="#6f816b" stroke-width="0.03"></polygon><polygon points="-8.432,1.1680000000000001 -2.48,3.8560000000000003 -2.48,1.2160000000000002 -8.432,-1.472" fill="#e4e4de" stroke="#6f816b" stroke-width="0.03"></polygon><polygon points="5.952,0.04800000000000004 -2.48,3.8560000000000003 -2.48,1.2160000000000002 5.952,-2.592" fill="#b9c5bf" stroke="#6f816b" stroke-width="0.03"></polygon><polygon points="0,-5.28 5.952,-2.592 -2.48,1.2160000000000002 -8.432,-1.472" fill="#f1ede5" stroke="#6f816b" stroke-width="0.03"></polygon><polygon points="0.5580000000000002,2.4839999999999995 1.55,2.932 -1.3639999999999997,4.247999999999999 -2.3559999999999994,3.8000000000000003" fill="#9cad9d" stroke="#6f816b" stroke-width="0.03"></polygon><polygon points="1.55,2.932 -1.3639999999999997,4.247999999999999 -1.3639999999999997,3.448 1.55,2.132" fill="#c8cec7" stroke="#6f816b" stroke-width="0.03"></polygon><polygon points="-2.3559999999999994,3.8000000000000003 -1.3639999999999997,4.247999999999999 -1.3639999999999997,3.448 -2.3559999999999994,3.0000000000000004" fill="#c8cec7" stroke="#6f816b" stroke-width="0.03"></polygon><polygon points="0.5580000000000002,-0.15600000000000058 1.55,0.2919999999999998 -1.3639999999999997,1.6079999999999997 -2.3559999999999994,1.1600000000000001" fill="#e9e3d7" stroke="#6f816b" stroke-width="0.03"></polygon><polygon points="3.286,3.892 2.108,4.424 2.108,2.664 3.286,2.1319999999999997" fill="#a8784e" stroke="#6f816b" stroke-width="0.03"></polygon><polygon points="-6.0760000000000005,4.424 -5.518,4.676 -5.518,2.916 -6.0760000000000005,2.664" fill="#a8784e" stroke="#6f816b" stroke-width="0.03"></polygon><polygon points="-7.626,3.0840000000000005 -6.572000000000001,3.56 -6.572000000000001,2.3600000000000003 -7.626,1.8840000000000008" fill="#7a9692" stroke="#6f816b" stroke-width="0.03"></polygon><polygon points="0.18599999999999933,4.651999999999999 -0.930000000000001,5.156000000000001 -0.930000000000001,3.9560000000000013 0.18599999999999933,3.452" fill="#7a9692" stroke="#6f816b" stroke-width="0.03"></polygon><polygon points="-1.0540000000000007,3.052 -1.7360000000000004,3.36 -1.7360000000000004,1.6000000000000005 -1.0540000000000007,1.2920000000000007" fill="#53665e" stroke="#6f816b" stroke-width="0.03"></polygon><polygon points="-7.935999999999999,0.7520000000000011 -6.696000000000001,1.3119999999999998 -6.696000000000001,0.03200000000000003 -7.935999999999999,-0.5279999999999987" fill="#7a9692" stroke="#6f816b" stroke-width="0.03"></polygon><polygon points="-4.092,2.488000000000001 -2.9759999999999995,2.9920000000000004 -2.9759999999999995,1.7120000000000006 -4.092,1.208000000000001" fill="#7a9692" stroke="#6f816b" stroke-width="0.03"></polygon><polygon points="0.5580000000000002,1.8439999999999999 -0.43399999999999955,2.2920000000000003 -0.43399999999999955,1.0120000000000005 0.5580000000000002,0.5640000000000001" fill="#7a9692" stroke="#6f816b" stroke-width="0.03"></polygon><polygon points="0.18600000000000003,-4.644 1.054,-4.252 0.558,-4.0280000000000005 -0.31,-4.42" fill="#8fa9aa" stroke="#6f816b" stroke-width="0.03"></polygon><text x="0" y="-7.5" font-size="0.36" text-anchor="middle" fill="#243b31" font-family="system-ui,sans-serif">Modern / contemporary · Bedroom corner balcony</text><text x="0" y="-6.9" font-size="0.26" text-anchor="middle" fill="#243b31" font-family="system-ui,sans-serif">C-side upper layer + road balcony frame</text><text x="0" y="8.7" font-size="0.22" text-anchor="middle" fill="#243b31" font-family="system-ui,sans-serif">Illustrative facade, rooflight, roof and guards. Cantilever / balcony support unverified.</text><text x="0" y="9.15" font-size="0.21" text-anchor="middle" fill="#243b31" font-family="system-ui,sans-serif">Balcony uses sister’s bedroom; shared access and privacy are traded for corner layering.</text></svg>