<svg xmlns="http://www.w3.org/2000/svg" viewBox="-10 -9 21 19" class="drawing" role="img" aria-label="massing conceptual drawing" data-revision="C03a" data-option="02"><polygon points="-0.434,-0.36400000000000005 8.99,3.892 -0.3720000000000009,8.120000000000001 -9.796000000000001,3.8640000000000008" fill="#dce7d0" stroke="#6f816b" stroke-width="0.03"></polygon><polygon points="0,0 -6.696000000000001,3.0240000000000005 -6.696000000000001,0.38400000000000034 0,-2.64" fill="#d4d8d0" stroke="#6f816b" stroke-width="0.03"></polygon><polygon points="-6.696000000000001,3.0240000000000005 0.2479999999999991,6.16 0.2479999999999991,3.52 -6.696000000000001,0.38400000000000034" fill="#e4e4de" stroke="#6f816b" stroke-width="0.03"></polygon><polygon points="6.944,3.136 0.2479999999999991,6.16 0.2479999999999991,3.52 6.944,0.496" fill="#b9c5bf" stroke="#6f816b" stroke-width="0.03"></polygon><polygon points="0,-2.64 6.944,0.496 0.2479999999999991,3.52 -6.696000000000001,0.38400000000000034" fill="#f1ede5" stroke="#6f816b" stroke-width="0.03"></polygon><polygon points="0,-2.64 -7.192,0.6080000000000001 -7.192,-2.032 0,-5.28" fill="#d4d8d0" stroke="#6f816b" stroke-width="0.03"></polygon><polygon points="-7.192,0.6080000000000001 -0.24800000000000022,3.7439999999999993 -0.24800000000000022,1.1039999999999992 -7.192,-2.032" fill="#e4e4de" stroke="#6f816b" stroke-width="0.03"></polygon><polygon points="6.944,0.496 -0.24800000000000022,3.7439999999999993 -0.24800000000000022,1.1039999999999992 6.944,-2.144" fill="#b9c5bf" stroke="#6f816b" stroke-width="0.03"></polygon><polygon points="0,-5.28 6.944,-2.144 -0.24800000000000022,1.1039999999999992 -7.192,-2.032" fill="#f1ede5" stroke="#6f816b" stroke-width="0.03"></polygon><polygon points="2.7899999999999996,2.3720000000000003 3.781999999999999,2.8200000000000007 0.8679999999999991,4.136000000000001 -0.12400000000000067,3.688000000000001" fill="#9cad9d" stroke="#6f816b" stroke-width="0.03"></polygon><polygon points="3.781999999999999,2.8200000000000007 0.8679999999999991,4.136000000000001 0.8679999999999991,3.3360000000000007 3.781999999999999,2.020000000000001" fill="#c8cec7" stroke="#6f816b" stroke-width="0.03"></polygon><polygon points="-0.12400000000000067,3.688000000000001 0.8679999999999991,4.136000000000001 0.8679999999999991,3.3360000000000007 -0.12400000000000067,2.8880000000000012" fill="#c8cec7" stroke="#6f816b" stroke-width="0.03"></polygon><polygon points="2.7899999999999996,-0.2679999999999998 3.781999999999999,0.1800000000000006 0.8679999999999991,1.4960000000000004 -0.12400000000000067,1.048000000000001" fill="#e9e3d7" stroke="#6f816b" stroke-width="0.03"></polygon><polygon points="4.34,4.312 3.162,4.843999999999999 3.162,3.083999999999999 4.34,2.552" fill="#a8784e" stroke="#6f816b" stroke-width="0.03"></polygon><polygon points="1.8599999999999999,2.632 1.1780000000000002,2.94 1.1780000000000002,1.1800000000000006 1.8599999999999999,0.8720000000000008" fill="#53665e" stroke="#6f816b" stroke-width="0.03"></polygon><polygon points="-6.696,0.19200000000000061 -5.456,0.7520000000000002 -5.456,-0.5279999999999996 -6.696,-1.0879999999999992" fill="#7a9692" stroke="#6f816b" stroke-width="0.03"></polygon><polygon points="-2.6039999999999996,2.0400000000000005 -1.487999999999999,2.544000000000001 -1.487999999999999,1.2640000000000011 -2.6039999999999996,0.7600000000000007" fill="#7a9692" stroke="#6f816b" stroke-width="0.03"></polygon><polygon points="0.8679999999999991,2.600000000000001 0.12399999999999956,2.9360000000000004 0.12399999999999956,1.6560000000000006 0.8679999999999991,1.3200000000000012" fill="#7a9692" stroke="#6f816b" stroke-width="0.03"></polygon><polygon points="0.37199999999999994,-4.672000000000001 1.2399999999999998,-4.28 0.7439999999999999,-4.056 -0.12400000000000011,-4.448" fill="#8fa9aa" stroke="#6f816b" stroke-width="0.03"></polygon><text x="0" y="-7.5" font-size="0.36" text-anchor="middle" fill="#243b31" font-family="system-ui,sans-serif">Modern / contemporary · Bedroom corner balcony</text><text x="0" y="-6.9" font-size="0.26" text-anchor="middle" fill="#243b31" font-family="system-ui,sans-serif">C-side upper layer + road balcony frame</text><text x="0" y="8.7" font-size="0.22" text-anchor="middle" fill="#243b31" font-family="system-ui,sans-serif">Illustrative facade, rooflight, roof and guards. Cantilever / balcony support unverified.</text><text x="0" y="9.15" font-size="0.21" text-anchor="middle" fill="#243b31" font-family="system-ui,sans-serif">Balcony uses sister’s bedroom; shared access and privacy are traded for corner layering.</text></svg>